<svg width="20" height="20" viewBox="0 0 20 20" fill="none" xmlns="http://www.w3.org/2000/svg">
<path d="M18.1647 3.31516L3.31548 18.1644C2.80813 18.6718 1.96668 18.6718 1.45933 18.1644C0.951979 17.6571 0.951979 16.8156 1.45933 16.3083L16.3086 1.45901C16.8159 0.951659 17.6574 0.951659 18.1647 1.45901C18.6721 1.96636 18.6721 2.80781 18.1647 3.31516Z" fill="#999999"/>
<path d="M18.1647 18.164C17.6574 18.6714 16.8159 18.6714 16.3086 18.164L1.45933 3.3148C0.951979 2.80745 0.951979 1.96599 1.45933 1.45864C1.96668 0.951292 2.80813 0.951292 3.31548 1.45864L18.1647 16.3079C18.6721 16.8152 18.6721 17.6567 18.1647 18.164Z" fill="#999999"/>
</svg>
