<svg width="580" height="444" viewBox="0 0 580 444" fill="none" xmlns="http://www.w3.org/2000/svg">
<rect opacity="0.3" x="440.523" y="440.547" width="131.194" height="193.031" rx="65.597" transform="rotate(-179.388 440.523 440.547)" fill="white" fill-opacity="0.5"/>
<path opacity="0.3" d="M306.919 353.322C306.403 401.623 266.828 440.361 218.527 439.845C194.376 439.587 175.007 419.8 175.265 395.649L177.645 172.877C178.045 135.469 208.694 105.469 246.101 105.868C281.146 106.243 309.252 134.956 308.877 170.001L306.919 353.322Z" fill="white" fill-opacity="0.15"/>
<rect opacity="0.3" x="442.617" y="245.02" width="265.73" height="137.043" rx="68.5217" transform="rotate(-179.388 442.617 245.02)" fill="white" fill-opacity="0.5"/>
<rect opacity="0.3" x="575.039" y="443.654" width="131.194" height="194.702" rx="65.597" transform="rotate(-179.388 575.039 443.654)" fill="white" fill-opacity="0.5"/>
<rect opacity="0.3" x="305.984" y="440.779" width="305.005" height="165.455" rx="82.7274" transform="rotate(-179.388 305.984 440.779)" fill="white" fill-opacity="0.15"/>
<rect opacity="0.3" x="577.148" y="246.457" width="131.194" height="137.043" rx="65.597" transform="rotate(-179.388 577.148 246.457)" fill="white"/>
<rect opacity="0.3" x="423.25" y="101.912" width="153.756" height="100.276" rx="50.1378" transform="rotate(-179.388 423.25 101.912)" fill="white" fill-opacity="0.15"/>
<rect opacity="0.3" x="428.5" y="1.6875" width="151.249" height="100.276" rx="50.1378" transform="rotate(0.612108 428.5 1.6875)" fill="white" fill-opacity="0.5"/>
</svg>
