<svg width="49" height="49" viewBox="0 0 49 49" fill="none" xmlns="http://www.w3.org/2000/svg">
<path d="M24.5007 46.4466C12.3936 46.4466 2.55273 36.6058 2.55273 24.4987C2.55273 12.3916 12.3936 2.55078 24.5007 2.55078C36.6077 2.55078 46.4486 12.3916 46.4486 24.4987C46.4486 36.6058 36.6077 46.4466 24.5007 46.4466ZM24.5007 5.61328C14.0882 5.61328 5.61523 14.0862 5.61523 24.4987C5.61523 34.9112 14.0882 43.3841 24.5007 43.3841C34.9132 43.3841 43.3861 34.9112 43.3861 24.4987C43.3861 14.0862 34.9132 5.61328 24.5007 5.61328Z" fill="#54B268"/>
<path d="M21.6009 31.8094C21.1926 31.8094 20.8047 31.6461 20.5189 31.3603L14.7409 25.5823C14.1489 24.9903 14.1489 24.0103 14.7409 23.4182C15.333 22.8261 16.313 22.8261 16.9051 23.4182L21.6009 28.114L32.0951 17.6198C32.6872 17.0278 33.6672 17.0278 34.2593 17.6198C34.8514 18.2119 34.8514 19.1919 34.2593 19.784L22.683 31.3603C22.3972 31.6461 22.0093 31.8094 21.6009 31.8094Z" fill="#54B268"/>
</svg>
